#!OML:ASF F:\VICON\USERDATA\INSTALL\rory3\rory3.ASF
:FULLY-SPECIFIED
:DEGREES
1747
root -0.707123 17.4532 3.88905 -715.23 -94.8796 719.295
lowerback 5.65156 -0.720237 -5.24286
upperback 1.93366 -1.25758 1.81656
thorax -1.01661 -0.662224 4.91011
lowerneck -17.0405 -4.18466 -14.7966
upperneck -25.5107 -4.31633 10.6795
head -4.57452 -2.15147 6.00306
rclavicle 2.71093e-014 -9.14409e-015
rhumerus -21.7667 16.5603 -81.9479
rradius 58.1947
rwrist 15.2369
rhand -29.5906 7.52201
rfingers 7.12502
rthumb -2.92211 -22.4377
lclavicle 2.71093e-014 -9.14409e-015
lhumerus -27.0539 -9.74432 89.7076
lradius 67.1458
lwrist 4.82334
lhand -23.9976 21.0532
lfingers 7.12502
lthumb 2.47969 51.0185
rfemur -24.819 9.11815 11.6823
rtibia 35.0126
rfoot -11.2542 23.7517
rtoes -10.438
lfemur -10.7768 -13.8529 -11.1398
ltibia 32.6205
lfoot -23.4575 -5.71307
ltoes -17.7448
1748
root -0.694843 17.4469 3.96556 -716.199 -95.4063 720.359
lowerback 5.66718 -0.829549 -5.18954
upperback 1.77685 -1.40029 1.79416
thorax -1.17189 -0.723448 4.86754
lowerneck -17.2742 -4.33281 -14.7865
upperneck -25.1518 -4.48411 10.7254
head -4.40393 -2.23947 5.98807
rclavicle 3.42904e-015 1.23246e-014
rhumerus -21.5336 17.0388 -81.8538
rradius 58.6272
rwrist 15.1583
rhand -29.6808 7.58785
rfingers 7.12502
rthumb -3.00919 -22.3707
lclavicle 3.42904e-015 1.23246e-014
lhumerus -26.8259 -10.0875 89.4201
lradius 67.3742
lwrist 4.75991
lhand -23.9186 20.87
lfingers 7.12502
lthumb 2.55597 50.8345
rfemur -25.0759 9.55932 11.443
rtibia 34.9397
rfoot -11.1882 23.7422
rtoes -10.8208
lfemur -10.7128 -14.0909 -11.1829
ltibia 32.4483
lfoot -23.1447 -6.06135
ltoes -16.7198
1749
root -0.682272 17.4396 4.0472 -716.938 -95.9424 721.164
lowerback 5.67849 -0.935964 -5.06896
upperback 1.63165 -1.53608 1.70543
thorax -1.31776 -0.781824 4.71721
lowerneck -17.4472 -4.49585 -14.5931
upperneck -24.8299 -4.70997 10.7412
head -4.25007 -2.37113 5.93173
rclavicle 8.10048e-015 6.95746e-016
rhumerus -21.3292 17.2833 -81.8897
rradius 59.0187
rwrist 15.2567
rhand -29.4748 7.88044
rfingers 7.12502
rthumb -2.81028 -22.0808
lclavicle 8.10048e-015 6.95746e-016
lhumerus -26.5353 -10.4137 89.0908
lradius 67.5317
lwrist 4.73699
lhand -23.5687 20.6401
lfingers 7.12502
lthumb 2.89391 50.6002
rfemur -25.3118 9.81742 11.2214
rtibia 34.8554
rfoot -11.0069 23.8255
rtoes -10.7398
lfemur -10.6334 -14.4067 -11.2845
ltibia 32.2693
lfoot -22.6929 -6.2687
ltoes -15.2939
1750
root -0.66833 17.4252 4.13133 -717.686 -96.4138 721.942
lowerback 5.74593 -1.03137 -4.96279
upperback 1.50385 -1.66033 1.68182
thorax -1.47676 -0.835326 4.64411
lowerneck -16.9072 -4.43743 -14.7069
upperneck -25.2318 -4.7114 10.7719
head -4.44966 -2.37707 5.9921
rclavicle -3.35201e-014 3.12092e-014
rhumerus -21.1545 17.5279 -81.7653
rradius 59.4558
rwrist 15.4098
rhand -29.2838 7.75021
rfingers 7.12502
rthumb -2.62578 -22.2134
lclavicle -3.35201e-014 3.12092e-014
lhumerus -26.2633 -10.8353 88.8833
lradius 67.7063
lwrist 4.77979
lhand -23.6405 20.8645
lfingers 7.12502
lthumb 2.82451 50.8255
rfemur -25.5164 10.0079 11.005
rtibia 34.7866
rfoot -10.9458 23.8609
rtoes -11.0859
lfemur -10.544 -14.5374 -11.4212
ltibia 32.0796
lfoot -22.3553 -6.26859
ltoes -14.9574
1751
root -0.65373 17.4104 4.21396 -718.252 -96.8763 722.606
lowerback 5.75554 -1.1117 -4.93759
upperback 1.38797 -1.76492 1.74934
thorax -1.58835 -0.881008 4.70927
lowerneck -16.2923 -4.36839 -15.1451
upperneck -25.7905 -4.66895 10.8792
head -4.71069 -2.33823 6.14595
rclavicle -1.75055e-014 1.15295e-014
rhumerus -20.9312 17.7746 -81.432
rradius 59.8951
rwrist 15.5733
rhand -29.3138 7.62291
rfingers 7.12502
rthumb -2.6548 -22.3403
lclavicle -1.75055e-014 1.15295e-014
lhumerus -25.9688 -11.296 88.7603
lradius 67.9279
lwrist 4.9264
lhand -23.9553 20.8032
lfingers 7.12502
lthumb 2.5205 50.768
rfemur -25.8235 10.3875 10.7199
rtibia 34.7405
rfoot -10.651 23.8311
rtoes -9.66737
lfemur -10.5292 -14.4747 -11.5579
ltibia 31.8582
lfoot -22.2889 -6.30194
ltoes -14.6192
1752
root -0.636968 17.4019 4.29822 -718.296 -97.4462 722.91
lowerback 5.50907 -1.24911 -4.97621
upperback 1.39635 -1.93752 1.77465
thorax -1.41949 -0.972308 4.76
lowerneck -16.5322 -4.42349 -15.3209
upperneck -25.9005 -4.71272 11.0594
head -4.69783 -2.36633 6.23635
rclavicle -5.49143e-015 4.67144e-015
rhumerus -20.2925 18.1437 -81.1909
rradius 60.1863
rwrist 15.6259
rhand -29.2295 7.83293
rfingers 7.12502
rthumb -2.57332 -22.1313
lclavicle -5.49143e-015 4.67144e-015
lhumerus -25.2085 -11.372 88.4349
lradius 67.9362
lwrist 4.86363
lhand -23.9583 20.5834
lfingers 7.12502
lthumb 2.51768 50.5483
rfemur -26.3743 11.0796 10.2785
rtibia 34.7042
rfoot -10.302 23.7235
rtoes -7.02349
lfemur -10.691 -14.1914 -11.7144
ltibia 31.6064
lfoot -22.2669 -6.29105
ltoes -13.858
